<?xml version="1.0" encoding="UTF-8"?>
<svg width="21px" height="15px" viewBox="0 0 21 15" version="1.1" xmlns="http://www.w3.org/2000/svg" xmlns:xlink="http://www.w3.org/1999/xlink">
    <!-- Generator: Sketch 45.2 (43514) - http://www.bohemiancoding.com/sketch -->
    <title>EN_flag</title>
    <desc>Created with Sketch.</desc>
    <defs></defs>
    <g id="Symbols" stroke="none" stroke-width="1" fill="none" fill-rule="evenodd">
        <g id="header" transform="translate(-1337.000000, -9.000000)">
            <g transform="translate(7.000000, 0.000000)" id="menu">
                <g transform="translate(259.665067, 5.412235)">
                    <g id="EN_flag" transform="translate(1071.000000, 3.000000)">
                        <g id="001-united-kingdom" transform="translate(0.096003, 0.960816)">
                            <path d="M19.5689483,14.2352996 L0.343331257,14.2352996 C0.153736799,14.2352996 0,14.0676858 0,13.8609776 L0,0.386024774 C0,0.179316648 0.153736799,0.01170286 0.343331257,0.01170286 L19.5689872,0.01170286 C19.7585816,0.01170286 19.9123184,0.179316648 19.9123184,0.386024774 L19.9123184,13.8609776 C19.9122795,14.0676858 19.7585427,14.2352996 19.5689483,14.2352996 Z" id="Shape" fill="#41479B" fill-rule="nonzero"></path>
                            <path d="M19.9122795,0.386024774 C19.9122795,0.179316648 19.7585427,0.01170286 19.5689483,0.01170286 L18.0329415,0.01170286 L11.6726794,4.55491424 L11.6726794,0.01170286 L8.23952238,0.01170286 L8.23952238,4.55491424 L1.87929916,0.01170286 L0.343331257,0.01170286 C0.153736799,0.01170286 0,0.179316648 0,0.386024774 L0,1.35409723 L5.45678131,5.25195524 L0,5.25195524 L0,8.99500477 L5.45678131,8.99500477 L0,12.8929052 L0,13.8609776 C0,14.0676858 0.153736799,14.2352996 0.343331257,14.2352996 L1.87933806,14.2352996 L8.23960016,9.69208817 L8.23960016,14.2352996 L11.6727572,14.2352996 L11.6727572,9.69208817 L18.0330193,14.2352996 L19.5690261,14.2352996 C19.7586205,14.2352996 19.9123573,14.0676858 19.9123573,13.8609776 L19.9123573,12.8929052 L14.455576,8.99504717 L19.9122795,8.99504717 L19.9122795,5.25199764 L14.4554982,5.25199764 L19.9122795,1.35409723 L19.9122795,0.386024774 Z" id="Shape" fill="#F5F5F5" fill-rule="nonzero"></path>
                            <g id="Group" fill-rule="nonzero" fill="#FF4B55">
                                <polygon id="Shape" points="19.9122795 6.00059907 10.9860947 6.00059907 10.9860947 0.01170286 8.92618489 0.01170286 8.92618489 6.00059907 0 6.00059907 0 8.24640335 8.92618489 8.24640335 8.92618489 14.2352996 10.9860947 14.2352996 10.9860947 8.24640335 19.9122795 8.24640335"></polygon>
                                <path d="M6.95949726,8.99500477 L0.00972279275,13.9134709 C0.0340297746,14.0942292 0.170732241,14.2352996 0.343292366,14.2352996 L0.816170114,14.2352996 L8.22066016,8.99504717 L6.95949726,8.99504717 L6.95949726,8.99500477 Z" id="Shape"></path>
                                <path d="M13.4714349,8.99500477 L12.210272,8.99500477 L19.6039892,14.22754 C19.776316,14.2075265 19.9123184,14.0541172 19.9123184,13.8609352 L19.9123184,13.5531839 L13.4714349,8.99500477 Z" id="Shape"></path>
                                <path d="M0,0.799229016 L6.29177475,5.25199764 L7.55293764,5.25199764 L0.200017292,0.048210695 C0.082565956,0.107700233 0,0.235541259 0,0.386024774 L0,0.799229016 Z" id="Shape"></path>
                                <path d="M12.9338812,5.25199764 L19.90034,0.321659044 C19.8714049,0.146879373 19.7376193,0.0117452617 19.5689483,0.0117452617 L19.0770916,0.0117452617 L11.6727183,5.25199764 L12.9338812,5.25199764 Z" id="Shape"></path>
                            </g>
                        </g>
                    </g>
                </g>
            </g>
        </g>
    </g>
</svg>