<?xml version="1.0" encoding="UTF-8"?>
<svg width="17px" height="17px" viewBox="0 0 17 17" version="1.1" xmlns="http://www.w3.org/2000/svg" xmlns:xlink="http://www.w3.org/1999/xlink">
    <!-- Generator: Sketch 45.2 (43514) - http://www.bohemiancoding.com/sketch -->
    <title>icn-bar-chart</title>
    <desc>Created with Sketch.</desc>
    <defs></defs>
    <g id="Symbols" stroke="none" stroke-width="1" fill="none" fill-rule="evenodd">
        <g id="icn-bar-chart" fill-rule="nonzero" fill="#FFFFFF">
            <g id="014-bar-chart">
                <path d="M3.88620724,7.24096733 L0.32883292,7.24096733 C0.146147964,7.24096733 0,7.38711529 0,7.56980025 L0,15.807231 C0,15.9899159 0.146147964,16.1360639 0.32883292,16.1360639 L3.88620724,16.1360639 C4.06889219,16.1360639 4.21504016,15.9899159 4.21504016,15.807231 L4.21504016,7.56980025 C4.21504016,7.38711529 4.06889219,7.24096733 3.88620724,7.24096733 Z M3.55737432,15.4783981 L0.65766584,15.4783981 L0.65766584,7.89863317 L3.56069586,7.89863317 L3.56069586,15.4783981 L3.55737432,15.4783981 Z" id="Shape"></path>
                <path d="M9.91813232,0.00664308929 L6.35743645,0.00664308929 C6.1747515,0.00664308929 6.02860353,0.152791054 6.02860353,0.335476009 L6.02860353,15.8039094 C6.02860353,15.9865944 6.1747515,16.1327424 6.35743645,16.1327424 L9.91813232,16.1327424 C10.1008173,16.1327424 10.2469652,15.9865944 10.2469652,15.8039094 L10.2469652,0.335476009 C10.2469652,0.156112598 10.1008173,0.00664308929 9.91813232,0.00664308929 Z M9.5892994,15.4783981 L6.68626937,15.4783981 L6.68626937,0.664308929 L9.5892994,0.664308929 L9.5892994,15.4783981 Z" id="Shape"></path>
                <path d="M15.9467358,16.1360639 C16.1294208,16.1360639 16.2755688,15.9899159 16.2755688,15.807231 L16.2755688,5.3344007 C16.2755688,5.15171575 16.1294208,5.00556778 15.9467358,5.00556778 L12.3893615,5.00556778 C12.2066766,5.00556778 12.0605286,5.15171575 12.0605286,5.3344007 L12.0605286,15.8039094 C12.0605286,15.9865944 12.2066766,16.1327424 12.3893615,16.1327424 L15.9467358,16.1327424 L15.9467358,16.1360639 Z M12.7181945,5.66323362 L15.6212245,5.66323362 L15.6212245,15.4783981 L12.7181945,15.4783981 L12.7181945,5.66323362 Z" id="Shape"></path>
            </g>
        </g>
    </g>
</svg>