<?xml version="1.0" encoding="UTF-8"?>
<svg width="18px" height="19px" viewBox="0 0 18 19" version="1.1" xmlns="http://www.w3.org/2000/svg" xmlns:xlink="http://www.w3.org/1999/xlink">
    <!-- Generator: Sketch 45.2 (43514) - http://www.bohemiancoding.com/sketch -->
    <title>icn_share</title>
    <desc>Created with Sketch.</desc>
    <defs></defs>
    <g id="Symbols" stroke="none" stroke-width="1" fill="none" fill-rule="evenodd">
        <g id="icn_share" fill-rule="nonzero" fill="#FFFFFF">
            <path d="M13.8860811,11.6558695 C12.842553,11.6558695 11.9120424,12.1531464 11.316817,12.9216653 L6.33274616,10.137668 C6.44953089,9.80238281 6.51357413,9.44072687 6.51357413,9.06776919 C6.51357413,8.69104425 6.44953089,8.33315556 6.32897891,7.99410312 L11.3092825,5.2138731 C11.9007407,5.98615922 12.8350185,6.48720338 13.8823139,6.48720338 C15.66799,6.48720338 17.1259155,5.03304513 17.1259155,3.24360169 C17.1259155,1.45415825 15.6717573,0 13.8823139,0 C12.0928704,0 10.6387122,1.45415825 10.6387122,3.24360169 C10.6387122,3.62032663 10.7027554,3.98198256 10.8233074,4.31726776 L5.84677099,7.09749778 C5.25531284,6.32144441 4.321035,5.8241675 3.27373969,5.8241675 C1.48806349,5.8241675 0.0301379948,7.27832575 0.0301379948,9.06776919 C0.0301379948,10.8572126 1.48806349,12.3113709 3.27750693,12.3113709 C4.32480225,12.3113709 5.25908009,11.8103267 5.85430549,11.0342733 L10.8346091,13.8182706 C10.7140572,14.1573231 10.6462467,14.5227462 10.6462467,14.8994712 C10.6462467,16.6851474 12.1004049,18.1430729 13.8898484,18.1430729 C15.6792918,18.1430729 17.13345,16.6889146 17.13345,14.8994712 C17.13345,13.1100277 15.6755245,11.6558695 13.8860811,11.6558695 Z M13.8860811,1.02092457 C15.1142044,1.02092457 16.1125255,2.01924565 16.1125255,3.24736894 C16.1125255,4.47549223 15.1142044,5.47381331 13.8860811,5.47381331 C12.6579578,5.47381331 11.6596367,4.47549223 11.6596367,3.24736894 C11.6596367,2.01924565 12.6617251,1.02092457 13.8860811,1.02092457 Z M3.27750693,11.2942136 C2.04938365,11.2942136 1.05106257,10.2958925 1.05106257,9.06776919 C1.05106257,7.8396459 2.04938365,6.84132482 3.27750693,6.84132482 C4.50563022,6.84132482 5.5039513,7.8396459 5.5039513,9.06776919 C5.5039513,10.2958925 4.50186297,11.2942136 3.27750693,11.2942136 Z M13.8860811,17.1221483 C12.6579578,17.1221483 11.6596367,16.1238272 11.6596367,14.8957039 C11.6596367,13.6675806 12.6579578,12.6692596 13.8860811,12.6692596 C15.1142044,12.6692596 16.1125255,13.6675806 16.1125255,14.8957039 C16.1125255,16.1238272 15.1142044,17.1221483 13.8860811,17.1221483 Z" id="Shape"></path>
        </g>
    </g>
</svg>