<?xml version="1.0" encoding="UTF-8"?>
<svg width="18px" height="18px" viewBox="0 0 18 18" version="1.1" xmlns="http://www.w3.org/2000/svg" xmlns:xlink="http://www.w3.org/1999/xlink">
    <!-- Generator: Sketch 45.2 (43514) - http://www.bohemiancoding.com/sketch -->
    <title>icn_avantages</title>
    <desc>Created with Sketch.</desc>
    <defs></defs>
    <g id="Symbols" stroke="none" stroke-width="1" fill="none" fill-rule="evenodd">
        <g id="icn_avantages" fill-rule="nonzero" fill="#FFFFFF">
            <path d="M16.7698413,12.0910965 C17.1343222,11.6261973 17.3091242,11.1278255 17.2868091,10.6145768 C17.2644939,10.0492595 17.0115888,9.60667553 16.803314,9.33517444 C17.0450615,8.73266517 17.1380414,7.78427096 16.3309765,7.04787074 C15.7396248,6.50858776 14.7354427,6.26684021 13.3444645,6.33378568 C12.3663167,6.378416 11.5480943,6.56065646 11.5146215,6.56809484 L11.5109023,6.56809484 C11.3249427,6.60156758 11.1278255,6.6424787 10.926989,6.68710902 C10.9121123,6.44908067 10.9530234,5.85772898 11.3918882,4.52625788 C11.9125752,2.94188167 11.8828216,1.72942475 11.2951891,0.918640672 C10.6778031,0.0669454741 9.69221697,0 9.40211991,0 C9.12318044,0 8.86655612,0.115294983 8.68431566,0.327288984 C8.27148524,0.807064882 8.31983475,1.69223282 8.37190345,2.10134405 C7.88096997,3.41793837 6.50486856,6.6461979 5.34076115,7.54252341 C5.31844599,7.55740018 5.29985003,7.57599615 5.28125406,7.59459211 C4.93908831,7.95535383 4.70849834,8.3458691 4.55229224,8.68803485 C4.33285985,8.56902068 4.08367392,8.5020752 3.81589202,8.5020752 L1.54718429,8.5020752 C0.691769899,8.5020752 0,9.1975643 0,10.0492595 L0,16.0929481 C0,16.9483625 0.695489092,17.6401324 1.54718429,17.6401324 L3.81589202,17.6401324 C4.1469002,17.6401324 4.45559322,17.535995 4.70849834,17.3574737 L5.5825087,17.4616111 C5.71639965,17.4802071 8.09668317,17.7814617 10.540193,17.7331122 C10.9827769,17.766585 11.3993266,17.7851809 11.7861226,17.7851809 C12.4518582,17.7851809 13.0320523,17.7331122 13.5155474,17.6289748 C14.6536204,17.3872273 15.4309318,16.9037322 15.8251662,16.1933663 C16.1264209,15.6503642 16.1264209,15.1110812 16.0780714,14.7689154 C16.8181908,14.0994607 16.9483625,13.3593413 16.9223282,12.8386542 C16.9074514,12.5373996 16.8405059,12.2807753 16.7698413,12.0910965 Z M1.54718429,16.6359503 C1.24592966,16.6359503 1.00418211,16.3904836 1.00418211,16.0929481 L1.00418211,10.0455403 C1.00418211,9.74428567 1.24964885,9.50253812 1.54718429,9.50253812 L3.81589202,9.50253812 C4.11714665,9.50253812 4.3588942,9.74800486 4.3588942,10.0455403 L4.3588942,16.0892289 C4.3588942,16.3904836 4.11342746,16.6322311 3.81589202,16.6322311 L1.54718429,16.6322311 L1.54718429,16.6359503 Z M15.8177278,11.6559509 C15.6615217,11.8195954 15.6317682,12.0687813 15.7507824,12.2621793 C15.7507824,12.2658985 15.9032693,12.526242 15.9218652,12.8832846 C15.9478996,13.3704988 15.7135904,13.8019252 15.222657,14.1701253 C15.0478549,14.3040163 14.9771902,14.5346063 15.0515741,14.7428811 C15.0515741,14.7466003 15.2114994,15.2375337 14.9511559,15.7024329 C14.7019699,16.148736 14.1478102,16.4685866 13.3072726,16.6471079 C12.6340986,16.7921564 11.7191772,16.8181908 10.5959809,16.7289301 C10.5811041,16.7289301 10.5625081,16.7289301 10.5439122,16.7289301 C8.15247106,16.7809988 5.73499561,16.4685866 5.70896126,16.4648674 L5.70524207,16.4648674 L5.32960357,16.4202371 C5.35191873,16.3160997 5.36307631,16.2045239 5.36307631,16.0929481 L5.36307631,10.0455403 C5.36307631,9.885615 5.33704196,9.7294089 5.29241164,9.58436037 C5.35935712,9.33517444 5.54531677,8.78101468 5.98418154,8.30867717 C7.6540992,6.98464446 9.28682493,2.51789366 9.3574896,2.32449563 C9.38724314,2.24639257 9.39468153,2.16085113 9.37980475,2.0753097 C9.31657847,1.65876008 9.33889363,1.14923064 9.42815426,0.996743725 C9.62527149,1.00046292 10.1571161,1.05625081 10.4769667,1.49883478 C10.8563244,2.02324099 10.8414476,2.96047763 10.4323364,4.20268809 C9.80751195,6.09575733 9.75544325,7.09250106 10.2500959,7.53136583 C10.4955627,7.75079822 10.8228516,7.7619558 11.06088,7.67641436 C11.2877508,7.62434566 11.503464,7.57971534 11.7080196,7.5462426 C11.7228963,7.54252341 11.7414923,7.53880422 11.7563691,7.53508502 C12.8981613,7.28589909 14.9437175,7.13341218 15.6540833,7.78055176 C16.2565926,8.33099233 15.8288854,9.05995416 15.7805359,9.13805721 C15.6429258,9.34633202 15.6838369,9.61783311 15.8697965,9.78519679 C15.8735157,9.78891598 16.264031,10.1571161 16.282627,10.6517688 C16.2975037,10.9827769 16.1412976,11.3212235 15.8177278,11.6559509 Z" id="Shape"></path>
        </g>
    </g>
</svg>