<?xml version="1.0" encoding="UTF-8"?>
<svg width="21px" height="13px" viewBox="0 0 21 13" version="1.1" xmlns="http://www.w3.org/2000/svg" xmlns:xlink="http://www.w3.org/1999/xlink">
    <!-- Generator: Sketch 45.2 (43514) - http://www.bohemiancoding.com/sketch -->
    <title>icn_ticket_menu</title>
    <desc>Created with Sketch.</desc>
    <defs></defs>
    <g id="Symbols" stroke="none" stroke-width="1" fill="none" fill-rule="evenodd">
        <g id="icn_ticket_menu" fill-rule="nonzero" fill="#FFFFFF">
            <g id="002-business">
                <path d="M19.9717078,1.89493935 C20.1936913,1.89196683 20.3720261,1.71428082 20.3720261,1.49607474 L20.3720261,0.433244095 C20.3720261,0.21292596 20.190349,0.0343403733 19.9662169,0.0343403733 L0.405809168,0.0343403733 C0.181677092,0.0343403733 0,0.21292596 0,0.433244095 L0,1.49607474 C0,1.6028115 0.0435292901,1.70508949 0.120839537,1.78010639 C0.198149785,1.85504507 0.303033888,1.89552603 0.411419433,1.89493935 L0.425982248,1.89454823 C0.892708549,1.89615182 1.27193859,2.26986739 1.27193859,2.72904277 C1.27193859,3.1880617 0.892947284,3.56169904 0.426419929,3.56353731 L0.411419433,3.56314619 C0.302994099,3.56252039 0.198189574,3.60304047 0.120839537,3.67797914 C0.043489501,3.75291782 0,3.85523492 0,3.96197168 L0,5.18136783 C0,5.2881046 0.0435292901,5.39038259 0.120839537,5.46539949 C0.198149785,5.54033816 0.303033888,5.58121025 0.411419433,5.58023244 L0.425982248,5.57984132 C0.892708549,5.58144492 1.27193859,5.95516048 1.27193859,6.41433586 C1.27193859,6.87331568 0.892947284,7.24699214 0.426380139,7.2488304 L0.411419433,7.24843928 C0.302994099,7.24824372 0.198189574,7.28837268 0.120839537,7.36327224 C0.0435292901,7.43828914 0,7.54056713 0,7.647343 L0,8.86673915 C0,8.97347592 0.0435292901,9.07579302 0.120839537,9.15077081 C0.198149785,9.22567037 0.303033888,9.26583844 0.411419433,9.26560376 L0.425982248,9.26521264 C0.892708549,9.26681624 1.27193859,9.6405318 1.27193859,10.0997072 C1.27193859,10.5587652 0.892907494,10.9324808 0.426300561,10.9342017 L0.411419433,10.9338106 C0.302994099,10.9328719 0.198189574,10.9737049 0.120839537,11.0486436 C0.0435292901,11.1236605 0,11.2259384 0,11.3326752 L0,12.3955059 C0,12.615824 0.181677092,12.7944096 0.405809168,12.7944096 L19.9662169,12.7944096 C20.190349,12.7944096 20.3720261,12.615824 20.3720261,12.3955059 L20.3720261,11.3326752 C20.3720261,11.1144691 20.1936117,10.936744 19.9717078,10.9338106 C19.5100745,10.9277091 19.1345051,10.5535242 19.1345051,10.0996681 C19.1345051,9.64585104 19.5100745,9.27170524 19.9717078,9.26556465 C20.1936913,9.26263125 20.3720261,9.08490613 20.3720261,8.86670004 L20.3720261,7.64730389 C20.3720261,7.42909781 20.1936117,7.25137269 19.9717078,7.24843928 C19.5100745,7.2423378 19.1345051,6.86815289 19.1345051,6.41433586 C19.1345051,5.96051883 19.5100745,5.58637304 19.9717078,5.58023244 C20.1936913,5.57729904 20.3720261,5.39957392 20.3720261,5.18136783 L20.3720261,3.96197168 C20.3720261,3.7437656 20.1936117,3.56604048 19.9717078,3.56310707 C19.5100745,3.5570056 19.1345051,3.18282069 19.1345051,2.72900366 C19.1344653,2.27522574 19.5100347,1.90104083 19.9717078,1.89493935 Z M19.5604077,4.3069399 L19.5604077,4.83647784 C18.8501721,5.02194715 18.3228072,5.6622504 18.3228072,6.41437498 C18.3228072,7.16649955 18.8501323,7.80676369 19.5604077,7.99227211 L19.5604077,8.52181005 C18.8501721,8.70731847 18.3228072,9.34758261 18.3228072,10.0997072 C18.3228072,10.8518318 18.8501323,11.4920959 19.5604077,11.6776043 L19.5604077,11.9966021 L14.2847692,11.9966021 L14.2847692,11.2810864 C14.2847692,11.0607683 14.1030921,10.8821827 13.87896,10.8821827 C13.6548279,10.8821827 13.4731509,11.0607683 13.4731509,11.2810864 L13.4731509,11.9966021 L0.811618336,11.9966021 L0.811618336,11.6868739 C1.54039574,11.5144289 2.08355692,10.8682197 2.08355692,10.0996681 C2.08355692,9.33111644 1.54035595,8.68494638 0.811618336,8.51246227 L0.811618336,8.00154166 C1.54039574,7.82909667 2.08355692,7.18292661 2.08355692,6.41433586 C2.08355692,5.64574512 1.54035595,4.99965329 0.811618336,4.82716918 L0.811618336,4.31617034 C1.54039574,4.14372535 2.08355692,3.49755529 2.08355692,2.72896454 C2.08355692,1.9603738 1.54035595,1.31428197 0.811618336,1.14179786 L0.811618336,0.832069593 L13.4731111,0.832069593 L13.4731111,1.5475853 C13.4731111,1.76790343 13.6547882,1.94648902 13.8789202,1.94648902 C14.1030523,1.94648902 14.2847294,1.76790343 14.2847294,1.5475853 L14.2847294,0.832069593 L19.560368,0.832069593 L19.560368,1.15106741 C18.8501323,1.33657583 18.3227674,1.97683997 18.3227674,2.72896454 C18.3227674,3.48108912 18.8501721,4.12143148 19.5604077,4.3069399 Z" id="Shape"></path>
                <path d="M13.87896,3.09544438 C13.6548279,3.09544438 13.4731509,3.27402997 13.4731509,3.4943481 L13.4731509,5.44103269 C13.4731509,5.66135082 13.6548279,5.83993641 13.87896,5.83993641 C14.1030921,5.83993641 14.2847692,5.66135082 14.2847692,5.44103269 L14.2847692,3.4943481 C14.2847692,3.27402997 14.1030921,3.09544438 13.87896,3.09544438 Z" id="Shape"></path>
                <path d="M13.87896,6.98881354 C13.6548279,6.98881354 13.4731509,7.16739913 13.4731509,7.38771727 L13.4731509,9.33440185 C13.4731509,9.55471998 13.6548279,9.73330557 13.87896,9.73330557 C14.1030921,9.73330557 14.2847692,9.55471998 14.2847692,9.33440185 L14.2847692,7.38771727 C14.2847692,7.16739913 14.1030921,6.98881354 13.87896,6.98881354 Z" id="Shape"></path>
                <path d="M11.0788012,2.58483667 L4.30168063,2.58483667 C4.07754855,2.58483667 3.89587146,2.76342225 3.89587146,2.98374039 C3.89587146,3.20405852 4.07754855,3.38264411 4.30168063,3.38264411 L11.078841,3.38264411 C11.302973,3.38264411 11.4846501,3.20405852 11.4846501,2.98374039 C11.4846501,2.76342225 11.3029332,2.58483667 11.0788012,2.58483667 Z" id="Shape"></path>
                <path d="M7.81470124,4.58338382 L4.30168063,4.58338382 C4.07754855,4.58338382 3.89587146,4.7619694 3.89587146,4.98228754 C3.89587146,5.20260567 4.07754855,5.38119126 4.30168063,5.38119126 L7.81470124,5.38119126 C8.03883332,5.38119126 8.22051041,5.20260567 8.22051041,4.98228754 C8.22051041,4.7619694 8.03883332,4.58338382 7.81470124,4.58338382 Z" id="Shape"></path>
                <path d="M10.1106525,4.58338382 L9.48823136,4.58338382 C9.26409928,4.58338382 9.08242219,4.7619694 9.08242219,4.98228754 C9.08242219,5.20260567 9.26409928,5.38119126 9.48823136,5.38119126 L10.1106525,5.38119126 C10.3347845,5.38119126 10.5164616,5.20260567 10.5164616,4.98228754 C10.5164616,4.7619694 10.3347845,4.58338382 10.1106525,4.58338382 Z" id="Shape"></path>
            </g>
        </g>
    </g>
</svg>